<svg xmlns="http://www.w3.org/2000/svg" viewBox="0 0 512 512">
  <defs>
    <linearGradient id="gradient" x1="0%" y1="0%" x2="100%" y2="100%">
      <stop offset="0%" stop-color="#667eea"/>
      <stop offset="100%" stop-color="#764ba2"/>
    </linearGradient>
  </defs>
  <rect width="512" height="512" rx="80" fill="url(#gradient)"/>
  <g fill="white">
    <!-- Medical cross -->
    <rect x="190" y="120" width="132" height="40" rx="20"/>
    <rect x="236" y="74" width="40" height="132" rx="20"/>
    
    <!-- TPN bottle/IV bag -->
    <path d="M160 240 L352 240 Q372 240 372 260 L372 420 Q372 440 352 440 L160 440 Q140 440 140 420 L140 260 Q140 240 160 240 Z" fill="rgba(255,255,255,0.9)"/>
    <rect x="235" y="220" width="42" height="25" rx="5" fill="white"/>
    <circle cx="256" cy="232" r="3" fill="#667eea"/>
    
    <!-- Content lines in bottle -->
    <g fill="#667eea" opacity="0.6">
      <rect x="165" y="270" width="182" height="3" rx="1.5"/>
      <rect x="165" y="290" width="140" height="3" rx="1.5"/>
      <rect x="165" y="310" width="160" height="3" rx="1.5"/>
      <rect x="165" y="330" width="120" height="3" rx="1.5"/>
    </g>
    
    <!-- Drop/calculation symbol -->
    <circle cx="420" cy="380" r="25" fill="rgba(255,255,255,0.9)"/>
    <text x="420" y="390" text-anchor="middle" fill="#667eea" font-family="Arial" font-size="24" font-weight="bold">รท</text>
  </g>
</svg>